<?xml version="1.0" standalone="no"?><!DOCTYPE svg PUBLIC "-//W3C//DTD SVG 1.1//EN" "http://www.w3.org/Graphics/SVG/1.1/DTD/svg11.dtd"><svg t="1655027977579" class="icon" viewBox="0 0 1927 1024" version="1.1" xmlns="http://www.w3.org/2000/svg" p-id="1818" width="240.875" height="128" xmlns:xlink="http://www.w3.org/1999/xlink"><defs><style type="text/css"></style></defs><path d="M1751.04 102.4q34.816 0 66.048 13.312t54.784 36.352 36.864 54.272 13.312 66.048l0 491.52q0 35.84-13.312 66.56t-36.864 54.272-54.784 36.864-66.048 13.312l-1584.128 0q-35.84 0-66.56-13.312t-54.272-36.864-36.864-54.272-13.312-66.56l0-491.52q0-34.816 13.312-66.048t36.864-54.272 54.272-36.352 66.56-13.312l1584.128 0zM508.928 287.744l-62.464 0 0 194.56-192.512 0 0-194.56-65.536 0 0 453.632 65.536 0 0-188.416 192.512 0 0 188.416 62.464 0 0-453.632zM894.976 289.792l-320.512 0 0 68.608 128 0 0 384 64.512 0 0-384 128 0 0-68.608zM1408 289.792l-101.376 0-117.76 332.8-128-332.8-100.352 0 0 453.632 61.44 0 0-330.752 120.832 330.752 76.8 0 124.928-324.608 0 324.608 63.488 0 0-453.632zM1794.048 676.864l-193.536 0 0-385.024-63.488 0 0 451.584 257.024 0 0-66.56z" p-id="1819" fill="#1268e2"></path></svg>