<?xml version="1.0" standalone="no"?><!DOCTYPE svg PUBLIC "-//W3C//DTD SVG 1.1//EN" "http://www.w3.org/Graphics/SVG/1.1/DTD/svg11.dtd"><svg t="1654268183364" class="icon" viewBox="0 0 1024 1024" version="1.1" xmlns="http://www.w3.org/2000/svg" p-id="1369" xmlns:xlink="http://www.w3.org/1999/xlink" width="64" height="64"><defs><style type="text/css"></style></defs><path d="M926.165333 652.672a42.666667 42.666667 0 0 1 8.106667 49.06666699A425.045333 425.045333 0 0 1 552.96 938.666667C318.293333 938.666667 128 748.373333 128 513.664a425.045333 425.045333 0 0 1 236.928-381.226667 42.666667 42.666667 0 0 1 57.173333 57.173334c-22.39999999 45.226667-34.986667 96.213333-34.986666 150.22933301a339.285333 339.285333 0 0 0 148.906666 281.08799999 42.666667 42.666667 0 0 1-48.042666 70.528 424.618667 424.618667 0 0 1-182.058667-410.88A339.669333 339.669333 0 0 0 786.218667 760.661333c-35.84 5.034667-72.362667 5.546667-108.416 1.40800001a42.666667 42.666667 0 0 1 9.728-84.77866601 341.973333 341.973333 0 0 0 189.568-32.725334 42.666667 42.666667 0 0 1 49.066666 8.106667z" fill="#1296db" p-id="1370"></path></svg>